PathFileType	4	(X/Y/Z)	10_2_15_p0_0-285.trc
DataRate	CameraRate	NumFrames	NumMarkers	Units	OrigDataRate	OrigDataStartFrame	OrigNumFrames
59.0	59.0	4	27	m	59.0	0	286
Frame#	Time	RHip			RKnee			RAnkle			RBigToe			RSmallToe			RHeel			LHip			LKnee			LAnkle			LBigToe			LSmallToe			LHeel			Neck			Head			Nose			RShoulder			RElbow			RWrist			RThumb			RIndex			RPinky			LShoulder			LElbow			LWrist			LThumb			LIndex			LPinky			
		X1	Y1	Z1	X2	Y2	Z2	X3	Y3	Z3	X4	Y4	Z4	X5	Y5	Z5	X6	Y6	Z6	X7	Y7	Z7	X8	Y8	Z8	X9	Y9	Z9	X10	Y10	Z10	X11	Y11	Z11	X12	Y12	Z12	X13	Y13	Z13	X14	Y14	Z14	X15	Y15	Z15	X16	Y16	Z16	X17	Y17	Z17	X18	Y18	Z18	X19	Y19	Z19	X20	Y20	Z20	X21	Y21	Z21	X22	Y22	Z22	X23	Y23	Z23	X24	Y24	Z24	X25	Y25	Z25	X26	Y26	Z26	X27	Y27	Z27	
0	0.0	0.2994504885332483	0.5588391687005925	0.9439957802886083	0.30620134777841274	0.6651464956731431	1.3850755481486363	0.31324788406672416	0.8093365232802257	1.7983781711882902	0.2772340168241057	0.5902763189672541	1.8363740299917657	0.3257696648525137	0.6439516008598324	1.847972930298044	0.28265781563976977	0.9076679175981289	1.854255733778837	0.07522419238223384	0.5275238968522462	0.9454058643111704	0.08424122169499687	0.648180361169709	1.3830214844264825	0.08276068352679464	0.7733483884686636	1.79977852657432	0.1113304656010275	0.616044218499618	1.8550002836460249	0.05594150099309919	0.6378314016203785	1.8409621278563981	0.09158475769464916	0.8866451094030182	1.8558100915845057	0.191105440455929	0.40323017830143976	0.3406529378465835	0.2123248455540999	0.28712755275309587	0.09405387302958287	0.21287685022522884	0.24161004487598292	0.23874482357694018	0.36009418452314323	0.4353722278432972	0.44076532282857067	0.4137078309614832	0.3938738837946285	0.7168844769008749	0.2568850132342642	0.2700794175057649	0.8864899048170471	0.17518554037129927	0.2906269506411914	0.9748423033447009	0.16272800500900247	0.28706796962729925	0.9754456412705704	0.16696912843179382	0.2755977721288563	0.9778213109925459	0.041895594159706576	0.4180740323220404	0.42055694107176583	0.01358044276440462	0.3594516910247454	0.7075972617916105	0.13019656193180057	0.2657539484301812	0.8895566534485776	0.20235467603890658	0.3134655699496827	0.9604625350563339	0.19543674201662573	0.2913833225701176	0.9746728087264401	0.17067666838847909	0.2555553727118649	0.9785868137344803
1	0.01694915254237288	0.30326074661584335	0.559795632789748	0.9440401323003575	0.30112026343744125	0.6764471452937841	1.379725904787541	0.31286628751070705	0.8089830085069114	1.8066711886070101	0.27772323946023214	0.5883753815819974	1.8395705986941544	0.32572792256146904	0.6436170293605151	1.8478014853210394	0.28161194606726436	0.9093084380019071	1.8603414360502197	0.07525813178604913	0.5274856086317968	0.9454367031892045	0.08426760281865837	0.6480609011014755	1.3828293466952928	0.08291749154882214	0.7777226493753514	1.8015679023759263	0.12052461386244945	0.6176432315734656	1.859114359038509	0.056345978325951354	0.6375509607142369	1.8410144971474973	0.0909348155766757	0.8776384270703035	1.854437494373716	0.1911860630868941	0.4032132976726049	0.3405489917126285	0.2124074434700873	0.28705354883291423	0.09406331567765175	0.212709755690547	0.24170693231162743	0.23864165216881292	0.3600863528229732	0.4354666052951005	0.4407298347148827	0.41327763457976374	0.39187207230720233	0.7134663643442265	0.2568642167928257	0.2702428554483917	0.8866286463487701	0.17361187109641463	0.3158251181649623	0.9814478142867066	0.1655836531322982	0.30041308356460006	0.9800522358095465	0.17069571949281018	0.2784534589291881	0.9818272624245882	0.042158409629255926	0.41724328673094585	0.4173237447435269	0.013560599424498082	0.3595559784286539	0.7075674279407806	0.13023266061831565	0.265700896198564	0.889541198366204	0.19951447125222593	0.3022377063753517	0.9594693990258873	0.19476205474816533	0.29231476023850733	0.9777997220836012	0.17072694018519147	0.25545267575700353	0.9786138075244629
2	0.03389830508474576	0.3022119498915892	0.5585318297600395	0.9435188367758317	0.3061942706680042	0.6651153664364563	1.3851231732134857	0.31286380439285977	0.8088823156507646	1.8070258700881652	0.27713408270631856	0.5897604447828679	1.8359708348778045	0.32552540860837953	0.643516443944023	1.8476456443928901	0.2827130658865456	0.912594576895697	1.866404417091886	0.0752521638786833	0.5274576889534016	0.9453963188870758	0.0803784271829504	0.6455476017134644	1.3826064958537976	0.08111314540179466	0.7617385593867496	1.8004428336878149	0.12112847959839984	0.6161566153724488	1.862872726151538	0.05632332165569261	0.6372226765177277	1.840748263818052	0.08561018023673465	0.8596394349447587	1.8564365161470153	0.19116762008731109	0.403097239886162	0.3405328402054501	0.21239951888415037	0.28720008424196763	0.09407875649600926	0.21048095110641757	0.26381068602517066	0.23531026351811787	0.3600536846123907	0.4354713598534605	0.44072409387094497	0.413263336216999	0.3918963286416425	0.713378510662422	0.25693500379587425	0.27039259554080025	0.8866932138224973	0.16627573079280758	0.31317603047231346	0.9784726177660134	0.1609551494271965	0.2973813068235675	0.9797498039668218	0.17101586586838555	0.2778623951050216	0.9853374939857331	0.04212697551076108	0.4172846317208507	0.41730624561680507	0.009791423742194294	0.3575079549065809	0.7077641278642027	0.1341971517355711	0.2665685808024212	0.8893399950987786	0.19954274070231653	0.30251572836199575	0.9589858564686164	0.194689990874048	0.2923532215368051	0.9777364023828098	0.17076098296599002	0.2552231310883672	0.9785085499981566
3	0.05084745762711865	0.302830800653788	0.561025612809494	0.9479520511957629	0.3068841174303228	0.6639409636923194	1.3805512083927114	0.3129408299729798	0.8087422813039546	1.8068786728686095	0.27769605131516795	0.588226493737796	1.8396388594240867	0.32618179672456377	0.6414752659310489	1.8512148522999905	0.2827575338267208	0.9124372286037885	1.8662126226040254	0.07568180698843743	0.5299893041584338	0.9498919633808407	0.08038478878175907	0.6455653273026499	1.3825901694127825	0.08293772005922256	0.777756622388579	1.8014611285297037	0.1210751094832657	0.6160708417273498	1.8629643087337182	0.05624859302047737	0.6375929029118891	1.841066182465312	0.08912465565819959	0.8655359003692736	1.8542328643056962	0.19119125381492988	0.4030632144546687	0.3405172099982839	0.21229989258513307	0.28546575593212486	0.09137832372474541	0.20805794374989	0.25295711349803074	0.23706359080266545	0.36008780071175767	0.43545664590872735	0.4407450691445608	0.41328643714431307	0.3917235969503623	0.7134751006243296	0.25686559538119746	0.2703316617777233	0.8866515966818244	0.16294953357933797	0.3112860411633931	0.9785065453424194	0.15696361521156035	0.29413529206197664	0.9795557253033652	0.1687654482172748	0.2858397164015647	0.9829598356117225	0.041921821176652	0.4180531486294201	0.42051535945888135	0.004332269510081801	0.36919667073629975	0.7081928915317748	0.13418795664518812	0.26674791900477923	0.8893419774783438	0.19966797495207364	0.30248059211809514	0.9590154987342443	0.19478061591574664	0.29231890178706427	0.9777222162726408	0.1736763300089047	0.25613805400461415	0.9785405620562494
